<svg xmlns="http://www.w3.org/2000/svg" viewBox="0 0 120 144" width="120" height="144">
  <defs>
    <linearGradient id="pg" x1="0" y1="0" x2="0" y2="1">
      <stop offset="0" stop-color="#4485FF"/>
      <stop offset="1" stop-color="#1E54E0"/>
    </linearGradient>
  </defs>
  <!-- raised waving arm -->
  <path d="M82 46 q24 -22 32 -3 q4 13 -16 19 q-13 4 -20 -5 z" fill="url(#pg)"/>
  <!-- feet -->
  <ellipse cx="42" cy="132" rx="13" ry="8" fill="#163FB0"/>
  <ellipse cx="74" cy="132" rx="13" ry="8" fill="#163FB0"/>
  <!-- body+head (one friendly blob) -->
  <ellipse cx="58" cy="78" rx="42" ry="56" fill="url(#pg)"/>
  <!-- belly highlight -->
  <ellipse cx="58" cy="94" rx="26" ry="34" fill="#76A4FF" opacity="0.45"/>
  <!-- left arm -->
  <ellipse cx="20" cy="88" rx="10" ry="15" fill="#2A63F0" transform="rotate(-16 20 88)"/>
  <!-- eyes -->
  <circle cx="47" cy="58" r="5" fill="#0B1B3A"/>
  <circle cx="71" cy="58" r="5" fill="#0B1B3A"/>
  <!-- cheeks -->
  <circle cx="40" cy="70" r="5" fill="#74A2FF" opacity="0.7"/>
  <circle cx="78" cy="70" r="5" fill="#74A2FF" opacity="0.7"/>
  <!-- smile -->
  <path d="M46 70 q13 13 26 0" stroke="#0B1B3A" stroke-width="4.5" fill="none" stroke-linecap="round"/>
  <!-- white striped scarf -->
  <path d="M30 104 q28 13 56 0 l-2 13 q-26 11 -52 0 z" fill="#ffffff"/>
  <path d="M41 108 l-3 11 M53 111 l-1 11 M66 111 l1 11 M78 108 l3 11" stroke="#3D7BFF" stroke-width="3.5" stroke-linecap="round"/>
</svg>
